<svg width="3231" height="3231" viewBox="0 0 3231 3231" fill="none" xmlns="http://www.w3.org/2000/svg">
<rect width="3231" height="3231" rx="700" fill="#DD3636"/>
<path fill-rule="evenodd" clip-rule="evenodd" d="M1615 2525.96C1619.43 2525.09 1623.81 2523.99 1628.13 2522.68C1638.1 2519.7 1650.96 2514.54 1666.71 2507.19C1698.21 2492.36 1738.51 2469.12 1783.92 2437.23C1898.09 2355.12 1999.27 2256.32 2084.09 2144.15C2284.51 1882.04 2452.51 1483.83 2379.79 938.225C2378.15 926.512 2373.24 915.499 2365.62 906.447C2358.01 897.394 2348 890.668 2336.74 887.038C2251.3 859.081 2107.06 813.537 1964.39 774.819C1818.7 735.312 1684.69 706.044 1615 706.044V2525.96ZM1230.7 639.5C1373.11 600.781 1524.44 566 1615 566C1705.56 566 1856.89 600.781 1999.3 639.5C2144.99 678.875 2291.86 725.469 2378.22 753.688C2414.33 765.612 2446.34 787.48 2470.58 816.78C2494.82 846.079 2510.3 881.622 2515.24 919.325C2593.47 1506.93 2411.95 1942.42 2191.71 2230.51C2098.28 2353.72 1986.93 2462.24 1861.36 2552.47C1817.98 2583.76 1771.96 2611.21 1723.81 2634.5C1687.06 2651.82 1647.55 2666 1615 2666C1582.45 2666 1543.08 2651.82 1506.19 2634.5C1458.04 2611.21 1412.02 2583.76 1368.64 2552.47C1243.07 2462.24 1131.72 2353.72 1038.29 2230.51C818.051 1942.42 636.532 1506.93 714.757 919.325C719.703 881.622 735.185 846.079 759.424 816.78C783.662 787.48 815.674 765.612 851.782 753.688C977.159 712.607 1103.5 674.534 1230.7 639.5Z" fill="#FFDD94"/>
</svg>
